<svg width="65" height="14" fill="none" xmlns="http://www.w3.org/2000/svg"><path d="M12.978.364 8.496 13H4.644L.162.364h3.276l3.132 9.54L9.72.364h3.258Zm4.364 2.466v2.556h4.122v2.376h-4.122v2.772h4.662V13h-7.74V.364h7.74V2.83h-4.662ZM35.307 13h-3.078L27.08 5.206V13h-3.078V.364h3.078l5.148 7.83V.364h3.078V13Zm1.709-6.336c0-1.248.27-2.358.81-3.33a5.73 5.73 0 0 1 2.25-2.286C41.048.496 42.146.22 43.37.22c1.5 0 2.784.396 3.852 1.188 1.068.792 1.782 1.872 2.142 3.24H45.98a2.716 2.716 0 0 0-1.08-1.206c-.456-.276-.978-.414-1.566-.414-.948 0-1.716.33-2.304.99-.588.66-.882 1.542-.882 2.646 0 1.104.294 1.986.882 2.646.588.66 1.356.99 2.304.99.588 0 1.11-.138 1.566-.414a2.716 2.716 0 0 0 1.08-1.206h3.384c-.36 1.368-1.074 2.448-2.142 3.24-1.068.78-2.352 1.17-3.852 1.17-1.224 0-2.322-.27-3.294-.81a5.885 5.885 0 0 1-2.25-2.286c-.54-.972-.81-2.082-.81-3.33Zm17.31-3.834v2.556h4.123v2.376h-4.122v2.772h4.662V13h-7.74V.364h7.74V2.83h-4.662Z" fill="#495057"/><path d="M62.427 13.144c-.54 0-.984-.156-1.332-.468a1.587 1.587 0 0 1-.504-1.188c0-.48.168-.882.504-1.206.348-.324.792-.486 1.332-.486.528 0 .96.162 1.296.486.348.324.522.726.522 1.206 0 .468-.174.864-.522 1.188-.336.312-.768.468-1.296.468Z" fill="#DDBEA9"/></svg>