<svg width="128" height="16" fill="none" xmlns="http://www.w3.org/2000/svg"><path d="M12.978 2.364 8.496 15H4.644L.162 2.364h3.276l3.132 9.54 3.15-9.54h3.258Zm4.364 2.466v2.556h4.122v2.376h-4.122v2.772h4.662V15h-7.74V2.364h7.74V4.83h-4.662ZM35.307 15h-3.078L27.08 7.206V15h-3.078V2.364h3.078l5.148 7.83v-7.83h3.078V15Zm1.709-6.336c0-1.248.27-2.358.81-3.33a5.73 5.73 0 0 1 2.25-2.286c.972-.552 2.07-.828 3.294-.828 1.5 0 2.784.396 3.852 1.188 1.068.792 1.782 1.872 2.142 3.24H45.98a2.716 2.716 0 0 0-1.08-1.206c-.456-.276-.978-.414-1.566-.414-.948 0-1.716.33-2.304.99-.588.66-.882 1.542-.882 2.646 0 1.104.294 1.986.882 2.646.588.66 1.356.99 2.304.99.588 0 1.11-.138 1.566-.414a2.716 2.716 0 0 0 1.08-1.206h3.384c-.36 1.368-1.074 2.448-2.142 3.24-1.068.78-2.352 1.17-3.852 1.17-1.224 0-2.322-.27-3.294-.81a5.885 5.885 0 0 1-2.25-2.286c-.54-.972-.81-2.082-.81-3.33Zm17.31-3.834v2.556h4.123v2.376h-4.122v2.772h4.662V15h-7.74V2.364h7.74V4.83h-4.662Zm15.048 10.296c-.924 0-1.752-.15-2.484-.45-.733-.3-1.32-.744-1.764-1.332-.433-.588-.66-1.296-.684-2.124h3.276c.047.468.21.828.486 1.08.276.24.636.36 1.08.36.456 0 .816-.102 1.08-.306.263-.216.395-.51.395-.882 0-.312-.108-.57-.323-.774a2.403 2.403 0 0 0-.775-.504c-.3-.132-.731-.282-1.296-.45-.816-.252-1.481-.504-1.997-.756a3.692 3.692 0 0 1-1.332-1.116c-.373-.492-.558-1.134-.558-1.926 0-1.176.425-2.094 1.278-2.754.852-.672 1.962-1.008 3.33-1.008 1.392 0 2.514.336 3.365 1.008.853.66 1.309 1.584 1.369 2.772h-3.33c-.024-.408-.174-.726-.45-.954-.277-.24-.63-.36-1.063-.36-.371 0-.672.102-.9.306-.227.192-.341.474-.341.846 0 .408.191.726.575.954.384.228.984.474 1.8.738.816.276 1.477.54 1.98.792.517.252.96.618 1.333 1.098.371.48.557 1.098.557 1.854 0 .72-.185 1.374-.557 1.962-.36.588-.889 1.056-1.585 1.404-.695.348-1.517.522-2.465.522Zm12.1-2.736V15h-1.566c-1.116 0-1.986-.27-2.61-.81-.624-.552-.936-1.446-.936-2.682V7.512h-1.224V4.956h1.224V2.508h3.078v2.448h2.016v2.556H79.44v4.032c0 .3.072.516.216.648.144.132.384.198.72.198h1.098Zm11.632-7.434V15h-3.078v-1.368c-.312.444-.738.804-1.278 1.08a3.889 3.889 0 0 1-1.764.396c-.768 0-1.446-.168-2.034-.504a3.516 3.516 0 0 1-1.368-1.494c-.324-.648-.486-1.41-.486-2.286V4.956h3.06v5.454c0 .672.174 1.194.522 1.566.348.372.816.558 1.404.558.6 0 1.074-.186 1.422-.558.348-.372.522-.894.522-1.566V4.956h3.078Zm1.6 5.004c0-1.032.191-1.938.575-2.718.396-.78.93-1.38 1.602-1.8a4.159 4.159 0 0 1 2.25-.63c.66 0 1.26.138 1.8.414.552.276.984.648 1.296 1.116V1.68h3.078V15h-3.078v-1.44c-.288.48-.702.864-1.242 1.152-.528.288-1.146.432-1.854.432-.828 0-1.578-.21-2.25-.63-.672-.432-1.206-1.038-1.602-1.818-.384-.792-.576-1.704-.576-2.736Zm7.523.018c0-.768-.216-1.374-.648-1.818a2.048 2.048 0 0 0-1.548-.666c-.612 0-1.134.222-1.566.666-.42.432-.63 1.032-.63 1.8s.21 1.38.63 1.836c.432.444.954.666 1.566.666.612 0 1.128-.222 1.548-.666.432-.444.648-1.05.648-1.818Zm6.853-6.066c-.54 0-.984-.156-1.332-.468a1.587 1.587 0 0 1-.504-1.188c0-.48.168-.876.504-1.188.348-.324.792-.486 1.332-.486.528 0 .96.162 1.296.486.348.312.522.708.522 1.188 0 .468-.174.864-.522 1.188-.336.312-.768.468-1.296.468Zm1.53 1.044V15h-3.078V4.956h3.078Zm6.803 10.188c-.984 0-1.872-.21-2.664-.63a4.69 4.69 0 0 1-1.854-1.8c-.444-.78-.666-1.692-.666-2.736 0-1.032.228-1.938.684-2.718a4.625 4.625 0 0 1 1.872-1.818c.792-.42 1.68-.63 2.664-.63.984 0 1.872.21 2.664.63a4.625 4.625 0 0 1 1.872 1.818c.456.78.684 1.686.684 2.718s-.234 1.944-.702 2.736a4.629 4.629 0 0 1-1.89 1.8c-.792.42-1.68.63-2.664.63Zm0-2.664c.588 0 1.086-.216 1.494-.648.42-.432.63-1.05.63-1.854s-.204-1.422-.612-1.854a1.92 1.92 0 0 0-1.476-.648c-.6 0-1.098.216-1.494.648-.396.42-.594 1.038-.594 1.854 0 .804.192 1.422.576 1.854a1.92 1.92 0 0 0 1.476.648Z" fill="#F8F9FA"/><path d="M125.744 15.144c-.54 0-.984-.156-1.332-.468a1.587 1.587 0 0 1-.504-1.188c0-.48.168-.882.504-1.206.348-.324.792-.486 1.332-.486.528 0 .96.162 1.296.486.348.324.522.726.522 1.206 0 .468-.174.864-.522 1.188-.336.312-.768.468-1.296.468Z" fill="#DDBEA9"/></svg>